<mxfile host="app.diagrams.net" agent="Mozilla/5.0 (Windows NT 10.0; Win64; x64) AppleWebKit/537.36 (KHTML, like Gecko) Chrome/131.0.0.0 Safari/537.36" version="25.0.3">
  <diagram id="C5RBs43oDa-KdzZeNtuy" name="Page-1">
    <mxGraphModel dx="1180" dy="1843" grid="1" gridSize="10" guides="1" tooltips="1" connect="1" arrows="1" fold="1" page="1" pageScale="1" pageWidth="827" pageHeight="1169" math="0" shadow="0">
      <root>
        <mxCell id="WIyWlLk6GJQsqaUBKTNV-0" />
        <mxCell id="WIyWlLk6GJQsqaUBKTNV-1" parent="WIyWlLk6GJQsqaUBKTNV-0" />
        <mxCell id="zkfFHV4jXpPFQw0GAbJ--6" value="User" style="swimlane;fontStyle=0;align=center;verticalAlign=top;childLayout=stackLayout;horizontal=1;startSize=26;horizontalStack=0;resizeParent=1;resizeLast=0;collapsible=1;marginBottom=0;rounded=0;shadow=0;strokeWidth=1;" parent="WIyWlLk6GJQsqaUBKTNV-1" vertex="1">
          <mxGeometry x="185" y="382" width="230" height="190" as="geometry">
            <mxRectangle x="130" y="380" width="160" height="26" as="alternateBounds" />
          </mxGeometry>
        </mxCell>
        <mxCell id="zkfFHV4jXpPFQw0GAbJ--7" value="- username : String&#xa;- password : String&#xa;- email : String" style="text;align=left;verticalAlign=top;spacingLeft=4;spacingRight=4;overflow=hidden;rotatable=0;points=[[0,0.5],[1,0.5]];portConstraint=eastwest;" parent="zkfFHV4jXpPFQw0GAbJ--6" vertex="1">
          <mxGeometry y="26" width="230" height="54" as="geometry" />
        </mxCell>
        <mxCell id="zkfFHV4jXpPFQw0GAbJ--9" value="" style="line;html=1;strokeWidth=1;align=left;verticalAlign=middle;spacingTop=-1;spacingLeft=3;spacingRight=3;rotatable=0;labelPosition=right;points=[];portConstraint=eastwest;" parent="zkfFHV4jXpPFQw0GAbJ--6" vertex="1">
          <mxGeometry y="80" width="230" height="10" as="geometry" />
        </mxCell>
        <mxCell id="heFmf04xh7JhcdJFY1r--3" value="&lt;&lt;create&gt;&gt; + User(email: String,&#xa;username: String, password: String)&#xa;+ getUsername() : String&#xa;+ getEmail() : String&#xa;+ login() : boolean&#xa;+ toString() : String" style="text;align=left;verticalAlign=top;spacingLeft=4;spacingRight=4;overflow=hidden;rotatable=0;points=[[0,0.5],[1,0.5]];portConstraint=eastwest;" parent="zkfFHV4jXpPFQw0GAbJ--6" vertex="1">
          <mxGeometry y="90" width="230" height="100" as="geometry" />
        </mxCell>
        <mxCell id="heFmf04xh7JhcdJFY1r--7" value="Classname" style="swimlane;fontStyle=1;align=center;verticalAlign=top;childLayout=stackLayout;horizontal=1;startSize=0;horizontalStack=0;resizeParent=1;resizeParentMax=0;resizeLast=0;collapsible=1;marginBottom=0;whiteSpace=wrap;html=1;" parent="WIyWlLk6GJQsqaUBKTNV-1" vertex="1">
          <mxGeometry x="220" y="210" width="160" height="74" as="geometry">
            <mxRectangle x="240" y="290" width="100" height="30" as="alternateBounds" />
          </mxGeometry>
        </mxCell>
        <mxCell id="heFmf04xh7JhcdJFY1r--4" value="«interface»&lt;br&gt;&lt;b&gt;UserInterface&lt;/b&gt;" style="html=1;whiteSpace=wrap;" parent="heFmf04xh7JhcdJFY1r--7" vertex="1">
          <mxGeometry width="160" height="40" as="geometry" />
        </mxCell>
        <mxCell id="heFmf04xh7JhcdJFY1r--9" value="" style="line;strokeWidth=1;fillColor=none;align=left;verticalAlign=middle;spacingTop=-1;spacingLeft=3;spacingRight=3;rotatable=0;labelPosition=right;points=[];portConstraint=eastwest;strokeColor=inherit;" parent="heFmf04xh7JhcdJFY1r--7" vertex="1">
          <mxGeometry y="40" width="160" height="8" as="geometry" />
        </mxCell>
        <mxCell id="heFmf04xh7JhcdJFY1r--10" value="&lt;i&gt;+login() : boolean&lt;/i&gt;" style="text;strokeColor=none;fillColor=none;align=left;verticalAlign=top;spacingLeft=4;spacingRight=4;overflow=hidden;rotatable=0;points=[[0,0.5],[1,0.5]];portConstraint=eastwest;whiteSpace=wrap;html=1;" parent="heFmf04xh7JhcdJFY1r--7" vertex="1">
          <mxGeometry y="48" width="160" height="26" as="geometry" />
        </mxCell>
        <mxCell id="heFmf04xh7JhcdJFY1r--11" value="" style="endArrow=block;dashed=1;endFill=0;endSize=12;html=1;rounded=0;" parent="WIyWlLk6GJQsqaUBKTNV-1" target="heFmf04xh7JhcdJFY1r--10" edge="1">
          <mxGeometry width="160" relative="1" as="geometry">
            <mxPoint x="300" y="380" as="sourcePoint" />
            <mxPoint x="440" y="390" as="targetPoint" />
          </mxGeometry>
        </mxCell>
        <mxCell id="heFmf04xh7JhcdJFY1r--12" value="UserManager" style="swimlane;fontStyle=1;align=center;verticalAlign=top;childLayout=stackLayout;horizontal=1;startSize=26;horizontalStack=0;resizeParent=1;resizeParentMax=0;resizeLast=0;collapsible=1;marginBottom=0;whiteSpace=wrap;html=1;" parent="WIyWlLk6GJQsqaUBKTNV-1" vertex="1">
          <mxGeometry x="580" y="382" width="160" height="200" as="geometry" />
        </mxCell>
        <mxCell id="heFmf04xh7JhcdJFY1r--13" value="- usersByEmail : HashMap&amp;lt;String, User&amp;gt;&lt;br&gt;- usersByUsername : HashMap&amp;lt;String, User&amp;gt;" style="text;strokeColor=none;fillColor=none;align=left;verticalAlign=top;spacingLeft=4;spacingRight=4;overflow=hidden;rotatable=0;points=[[0,0.5],[1,0.5]];portConstraint=eastwest;whiteSpace=wrap;html=1;" parent="heFmf04xh7JhcdJFY1r--12" vertex="1">
          <mxGeometry y="26" width="160" height="64" as="geometry" />
        </mxCell>
        <mxCell id="heFmf04xh7JhcdJFY1r--14" value="" style="line;strokeWidth=1;fillColor=none;align=left;verticalAlign=middle;spacingTop=-1;spacingLeft=3;spacingRight=3;rotatable=0;labelPosition=right;points=[];portConstraint=eastwest;strokeColor=inherit;" parent="heFmf04xh7JhcdJFY1r--12" vertex="1">
          <mxGeometry y="90" width="160" height="10" as="geometry" />
        </mxCell>
        <mxCell id="heFmf04xh7JhcdJFY1r--15" value="+ registerUser(email: String, username: String, password: String) : void&lt;br&gt;+ loginUser(identifier: String, password: String) : void" style="text;strokeColor=none;fillColor=none;align=left;verticalAlign=top;spacingLeft=4;spacingRight=4;overflow=hidden;rotatable=0;points=[[0,0.5],[1,0.5]];portConstraint=eastwest;whiteSpace=wrap;html=1;" parent="heFmf04xh7JhcdJFY1r--12" vertex="1">
          <mxGeometry y="100" width="160" height="100" as="geometry" />
        </mxCell>
        <mxCell id="heFmf04xh7JhcdJFY1r--18" value="" style="endArrow=none;html=1;edgeStyle=orthogonalEdgeStyle;rounded=0;exitX=1.003;exitY=0.098;exitDx=0;exitDy=0;exitPerimeter=0;" parent="WIyWlLk6GJQsqaUBKTNV-1" source="heFmf04xh7JhcdJFY1r--3" edge="1">
          <mxGeometry relative="1" as="geometry">
            <mxPoint x="420" y="480" as="sourcePoint" />
            <mxPoint x="560" y="480" as="targetPoint" />
            <Array as="points">
              <mxPoint x="416" y="480" />
              <mxPoint x="579" y="480" />
            </Array>
          </mxGeometry>
        </mxCell>
        <mxCell id="heFmf04xh7JhcdJFY1r--23" value="AplikasiStreaming" style="swimlane;fontStyle=0;childLayout=stackLayout;horizontal=1;startSize=26;fillColor=none;horizontalStack=0;resizeParent=1;resizeParentMax=0;resizeLast=0;collapsible=1;marginBottom=0;whiteSpace=wrap;html=1;" parent="WIyWlLk6GJQsqaUBKTNV-1" vertex="1">
          <mxGeometry x="750" y="670" width="140" height="52" as="geometry" />
        </mxCell>
        <mxCell id="heFmf04xh7JhcdJFY1r--24" value="+ main(String[] args)" style="text;strokeColor=none;fillColor=none;align=left;verticalAlign=top;spacingLeft=4;spacingRight=4;overflow=hidden;rotatable=0;points=[[0,0.5],[1,0.5]];portConstraint=eastwest;whiteSpace=wrap;html=1;" parent="heFmf04xh7JhcdJFY1r--23" vertex="1">
          <mxGeometry y="26" width="140" height="26" as="geometry" />
        </mxCell>
        <mxCell id="ZTSiYQMdODxyRtstsJls-0" value="&lt;i&gt;Subscription&lt;/i&gt;" style="swimlane;fontStyle=1;align=center;verticalAlign=top;childLayout=stackLayout;horizontal=1;startSize=26;horizontalStack=0;resizeParent=1;resizeParentMax=0;resizeLast=0;collapsible=1;marginBottom=0;whiteSpace=wrap;html=1;" parent="WIyWlLk6GJQsqaUBKTNV-1" vertex="1">
          <mxGeometry x="1110" y="860" width="160" height="260" as="geometry" />
        </mxCell>
        <mxCell id="ZTSiYQMdODxyRtstsJls-1" value="- subscriptionID : String&lt;div&gt;- planType : String&lt;/div&gt;&lt;div&gt;- startDate : String&lt;/div&gt;&lt;div&gt;- endDate : String&lt;/div&gt;&lt;div&gt;- price : double&lt;/div&gt;" style="text;strokeColor=none;fillColor=none;align=left;verticalAlign=top;spacingLeft=4;spacingRight=4;overflow=hidden;rotatable=0;points=[[0,0.5],[1,0.5]];portConstraint=eastwest;whiteSpace=wrap;html=1;" parent="ZTSiYQMdODxyRtstsJls-0" vertex="1">
          <mxGeometry y="26" width="160" height="84" as="geometry" />
        </mxCell>
        <mxCell id="ZTSiYQMdODxyRtstsJls-2" value="" style="line;strokeWidth=1;fillColor=none;align=left;verticalAlign=middle;spacingTop=-1;spacingLeft=3;spacingRight=3;rotatable=0;labelPosition=right;points=[];portConstraint=eastwest;strokeColor=inherit;" parent="ZTSiYQMdODxyRtstsJls-0" vertex="1">
          <mxGeometry y="110" width="160" height="10" as="geometry" />
        </mxCell>
        <mxCell id="ZTSiYQMdODxyRtstsJls-3" value="&lt;div&gt;&amp;lt;&amp;lt;create&amp;gt;&amp;gt;+ Subscription(subscriptionID : string, planType : string, startDate : string, endDate : string, price : double)&amp;nbsp;&lt;/div&gt;+ choosePlan() : void&lt;div&gt;+ renewSubs() : void&lt;/div&gt;&lt;div&gt;+ cancelSubs() : void&lt;/div&gt;&lt;div&gt;+ &lt;i&gt;price&lt;/i&gt;&lt;i style=&quot;&quot;&gt;&lt;u&gt;()&lt;/u&gt;&lt;/i&gt;&lt;/div&gt;" style="text;strokeColor=none;fillColor=none;align=left;verticalAlign=top;spacingLeft=4;spacingRight=4;overflow=hidden;rotatable=0;points=[[0,0.5],[1,0.5]];portConstraint=eastwest;whiteSpace=wrap;html=1;" parent="ZTSiYQMdODxyRtstsJls-0" vertex="1">
          <mxGeometry y="120" width="160" height="140" as="geometry" />
        </mxCell>
        <mxCell id="ZTSiYQMdODxyRtstsJls-4" style="edgeStyle=orthogonalEdgeStyle;rounded=0;orthogonalLoop=1;jettySize=auto;html=1;" parent="WIyWlLk6GJQsqaUBKTNV-1" edge="1">
          <mxGeometry relative="1" as="geometry">
            <mxPoint x="1191" y="1120" as="targetPoint" />
            <Array as="points">
              <mxPoint x="1037" y="1162" />
              <mxPoint x="1191" y="1162" />
            </Array>
            <mxPoint x="1037.0012765957447" y="1222" as="sourcePoint" />
          </mxGeometry>
        </mxCell>
        <mxCell id="ZTSiYQMdODxyRtstsJls-5" value="StandardSub" style="swimlane;fontStyle=1;align=center;verticalAlign=top;childLayout=stackLayout;horizontal=1;startSize=26;horizontalStack=0;resizeParent=1;resizeParentMax=0;resizeLast=0;collapsible=1;marginBottom=0;whiteSpace=wrap;html=1;" parent="WIyWlLk6GJQsqaUBKTNV-1" vertex="1">
          <mxGeometry x="950" y="1222" width="170" height="250" as="geometry" />
        </mxCell>
        <mxCell id="ZTSiYQMdODxyRtstsJls-6" value="- screenQuality : int&lt;div&gt;- MAXdevice : int&lt;/div&gt;" style="text;strokeColor=none;fillColor=none;align=left;verticalAlign=top;spacingLeft=4;spacingRight=4;overflow=hidden;rotatable=0;points=[[0,0.5],[1,0.5]];portConstraint=eastwest;whiteSpace=wrap;html=1;" parent="ZTSiYQMdODxyRtstsJls-5" vertex="1">
          <mxGeometry y="26" width="170" height="44" as="geometry" />
        </mxCell>
        <mxCell id="ZTSiYQMdODxyRtstsJls-7" value="" style="line;strokeWidth=1;fillColor=none;align=left;verticalAlign=middle;spacingTop=-1;spacingLeft=3;spacingRight=3;rotatable=0;labelPosition=right;points=[];portConstraint=eastwest;strokeColor=inherit;" parent="ZTSiYQMdODxyRtstsJls-5" vertex="1">
          <mxGeometry y="70" width="170" height="20" as="geometry" />
        </mxCell>
        <mxCell id="ZTSiYQMdODxyRtstsJls-8" value="&lt;div&gt;&amp;lt;&amp;lt;create&amp;gt;&amp;gt; + StandardSub(&lt;/div&gt;&lt;div&gt;subscriptionID: String, planType: string, startDate: string, endDate: string, price: double, screenQuality: string, MAXdevice: int)&lt;/div&gt;+ price() : void&lt;div&gt;+ applyStandardFeatures() : void&lt;/div&gt;" style="text;strokeColor=none;fillColor=none;align=left;verticalAlign=top;spacingLeft=4;spacingRight=4;overflow=hidden;rotatable=0;points=[[0,0.5],[1,0.5]];portConstraint=eastwest;whiteSpace=wrap;html=1;" parent="ZTSiYQMdODxyRtstsJls-5" vertex="1">
          <mxGeometry y="90" width="170" height="160" as="geometry" />
        </mxCell>
        <mxCell id="ZTSiYQMdODxyRtstsJls-9" style="edgeStyle=orthogonalEdgeStyle;rounded=0;orthogonalLoop=1;jettySize=auto;html=1;exitX=0.5;exitY=0;exitDx=0;exitDy=0;" parent="WIyWlLk6GJQsqaUBKTNV-1" source="ZTSiYQMdODxyRtstsJls-10" edge="1">
          <mxGeometry relative="1" as="geometry">
            <mxPoint x="1190" y="1122" as="targetPoint" />
            <Array as="points">
              <mxPoint x="1345" y="1162" />
              <mxPoint x="1190" y="1162" />
            </Array>
          </mxGeometry>
        </mxCell>
        <mxCell id="ZTSiYQMdODxyRtstsJls-10" value="PremiumSub" style="swimlane;fontStyle=1;align=center;verticalAlign=top;childLayout=stackLayout;horizontal=1;startSize=26;horizontalStack=0;resizeParent=1;resizeParentMax=0;resizeLast=0;collapsible=1;marginBottom=0;whiteSpace=wrap;html=1;" parent="WIyWlLk6GJQsqaUBKTNV-1" vertex="1">
          <mxGeometry x="1260" y="1222" width="170" height="250" as="geometry" />
        </mxCell>
        <mxCell id="ZTSiYQMdODxyRtstsJls-11" value="- screenQuality : int&lt;div&gt;- MAXdevice : int&lt;/div&gt;" style="text;strokeColor=none;fillColor=none;align=left;verticalAlign=top;spacingLeft=4;spacingRight=4;overflow=hidden;rotatable=0;points=[[0,0.5],[1,0.5]];portConstraint=eastwest;whiteSpace=wrap;html=1;" parent="ZTSiYQMdODxyRtstsJls-10" vertex="1">
          <mxGeometry y="26" width="170" height="44" as="geometry" />
        </mxCell>
        <mxCell id="ZTSiYQMdODxyRtstsJls-12" value="" style="line;strokeWidth=1;fillColor=none;align=left;verticalAlign=middle;spacingTop=-1;spacingLeft=3;spacingRight=3;rotatable=0;labelPosition=right;points=[];portConstraint=eastwest;strokeColor=inherit;" parent="ZTSiYQMdODxyRtstsJls-10" vertex="1">
          <mxGeometry y="70" width="170" height="20" as="geometry" />
        </mxCell>
        <mxCell id="ZTSiYQMdODxyRtstsJls-13" value="&lt;div&gt;&amp;lt;&amp;lt;create&amp;gt;&amp;gt; + PremiumSub(&lt;/div&gt;&lt;div&gt;subscriptionID: String, planType: string, startDate: string, endDate: string, price: double, screenQuality: string, MAXdevice: int)&lt;/div&gt;+ price() : void&lt;div&gt;+ applyPremiumFeatures() : void&lt;/div&gt;" style="text;strokeColor=none;fillColor=none;align=left;verticalAlign=top;spacingLeft=4;spacingRight=4;overflow=hidden;rotatable=0;points=[[0,0.5],[1,0.5]];portConstraint=eastwest;whiteSpace=wrap;html=1;" parent="ZTSiYQMdODxyRtstsJls-10" vertex="1">
          <mxGeometry y="90" width="170" height="160" as="geometry" />
        </mxCell>
        <mxCell id="ZTSiYQMdODxyRtstsJls-14" value="" style="endArrow=none;html=1;edgeStyle=orthogonalEdgeStyle;rounded=0;entryX=0;entryY=0.5;entryDx=0;entryDy=0;exitX=0.426;exitY=1.006;exitDx=0;exitDy=0;exitPerimeter=0;" parent="WIyWlLk6GJQsqaUBKTNV-1" source="heFmf04xh7JhcdJFY1r--15" target="heFmf04xh7JhcdJFY1r--24" edge="1">
          <mxGeometry relative="1" as="geometry">
            <mxPoint x="560" y="649.23" as="sourcePoint" />
            <mxPoint x="720" y="649.23" as="targetPoint" />
          </mxGeometry>
        </mxCell>
        <mxCell id="fiL2AEOfi939g-dcIRjF-0" value="&lt;p style=&quot;margin:0px;margin-top:4px;text-align:center;&quot;&gt;&lt;span style=&quot;text-wrap-mode: nowrap;&quot;&gt;&lt;b&gt;&lt;i&gt;Recommendation&lt;/i&gt;&lt;/b&gt;&lt;/span&gt;&lt;/p&gt;&lt;hr size=&quot;1&quot; style=&quot;border-style:solid;&quot;&gt;&lt;p style=&quot;margin:0px;margin-left:4px;&quot;&gt;&lt;span style=&quot;text-wrap-mode: nowrap;&quot;&gt;-films :&amp;nbsp;&lt;/span&gt;&lt;span style=&quot;background-color: initial; text-wrap-mode: nowrap;&quot;&gt;ArrayList&amp;lt;String&amp;gt;&lt;/span&gt;&lt;/p&gt;&lt;hr size=&quot;1&quot; style=&quot;border-style:solid;&quot;&gt;&lt;p style=&quot;margin:0px;margin-left:4px;&quot;&gt;+&amp;lt;create&amp;gt;Recommendation(&lt;span style=&quot;text-wrap-mode: nowrap; background-color: initial;&quot;&gt;films :&amp;nbsp;&lt;/span&gt;&lt;span style=&quot;background-color: initial;&quot;&gt;&lt;span style=&quot;text-wrap-mode: nowrap;&quot;&gt;ArrayList&amp;lt;String&amp;gt;&lt;/span&gt;)&lt;/span&gt;&lt;/p&gt;&lt;p style=&quot;margin:0px;margin-left:4px;&quot;&gt;&lt;span style=&quot;background-color: initial;&quot;&gt;+&lt;/span&gt;&lt;span style=&quot;background-color: initial;&quot;&gt;getFilms():&amp;nbsp;&lt;/span&gt;&lt;span style=&quot;background-color: initial;&quot;&gt;ArrayList&amp;lt;String&amp;gt;&lt;/span&gt;&lt;/p&gt;&lt;p style=&quot;margin:0px;margin-left:4px;&quot;&gt;&lt;span style=&quot;background-color: initial;&quot;&gt;+&amp;nbsp;&lt;/span&gt;&lt;span style=&quot;background-color: initial;&quot;&gt;setFilms(ArrayList&amp;lt;String&amp;gt; films)&lt;/span&gt;&lt;/p&gt;&lt;p style=&quot;margin:0px;margin-left:4px;&quot;&gt;&lt;span style=&quot;background-color: initial;&quot;&gt;+&lt;/span&gt;&lt;span style=&quot;background-color: initial;&quot;&gt;showAllRecommendedFilms()&lt;/span&gt;&lt;/p&gt;&lt;p style=&quot;margin:0px;margin-left:4px;&quot;&gt;&lt;i&gt;&lt;span style=&quot;background-color: initial;&quot;&gt;+&lt;/span&gt;&lt;span style=&quot;background-color: initial;&quot;&gt;showRecommendations(String genre)&lt;/span&gt;&lt;/i&gt;&lt;/p&gt;" style="verticalAlign=top;align=left;overflow=fill;html=1;whiteSpace=wrap;" parent="WIyWlLk6GJQsqaUBKTNV-1" vertex="1">
          <mxGeometry x="155" y="780" width="290" height="150" as="geometry" />
        </mxCell>
        <mxCell id="fiL2AEOfi939g-dcIRjF-1" style="edgeStyle=orthogonalEdgeStyle;rounded=0;orthogonalLoop=1;jettySize=auto;html=1;exitX=0.5;exitY=0;exitDx=0;exitDy=0;entryX=0.5;entryY=1;entryDx=0;entryDy=0;" parent="WIyWlLk6GJQsqaUBKTNV-1" source="fiL2AEOfi939g-dcIRjF-2" target="fiL2AEOfi939g-dcIRjF-0" edge="1">
          <mxGeometry relative="1" as="geometry" />
        </mxCell>
        <mxCell id="fiL2AEOfi939g-dcIRjF-4" value="Extends" style="edgeLabel;html=1;align=center;verticalAlign=middle;resizable=0;points=[];" parent="fiL2AEOfi939g-dcIRjF-1" vertex="1" connectable="0">
          <mxGeometry x="-0.1397" y="-1" relative="1" as="geometry">
            <mxPoint as="offset" />
          </mxGeometry>
        </mxCell>
        <mxCell id="fiL2AEOfi939g-dcIRjF-2" value="&lt;p style=&quot;margin:0px;margin-top:4px;text-align:center;&quot;&gt;&lt;span style=&quot;text-wrap-mode: nowrap;&quot;&gt;&lt;b&gt;GenreRecommendation&lt;/b&gt;&lt;/span&gt;&lt;/p&gt;&lt;hr size=&quot;1&quot; style=&quot;border-style:solid;&quot;&gt;&lt;p style=&quot;margin:0px;margin-left:4px;&quot;&gt;&lt;span style=&quot;text-wrap-mode: nowrap;&quot;&gt;-genreToFilms:&amp;nbsp;&lt;/span&gt;&lt;span style=&quot;background-color: initial; text-wrap-mode: nowrap;&quot;&gt;HashMap&amp;lt;String, ArrayList&amp;lt;String&amp;gt;&amp;gt;&lt;/span&gt;&lt;/p&gt;&lt;hr size=&quot;1&quot; style=&quot;border-style:solid;&quot;&gt;&lt;p style=&quot;margin:0px;margin-left:4px;&quot;&gt;+&amp;lt;create&amp;gt;GenreRecommendation(&lt;span style=&quot;text-wrap-mode: nowrap; background-color: initial;&quot;&gt;films :&amp;nbsp;&lt;/span&gt;&lt;span style=&quot;background-color: initial;&quot;&gt;&lt;span style=&quot;text-wrap-mode: nowrap;&quot;&gt;ArrayList&amp;lt;String&amp;gt;,&amp;nbsp;&lt;/span&gt;&lt;/span&gt;&lt;/p&gt;&lt;p style=&quot;margin:0px;margin-left:4px;&quot;&gt;&lt;span style=&quot;background-color: initial; text-wrap-mode: nowrap;&quot;&gt;genreToFilms:&amp;nbsp;&lt;/span&gt;&lt;span style=&quot;background-color: initial; text-wrap-mode: nowrap;&quot;&gt;HashMap&amp;lt;String, ArrayList&amp;lt;String&amp;gt;&amp;gt;&lt;/span&gt;&lt;span style=&quot;background-color: initial;&quot;&gt;)&lt;/span&gt;&lt;/p&gt;&lt;p style=&quot;margin:0px;margin-left:4px;&quot;&gt;&lt;span style=&quot;background-color: initial;&quot;&gt;+&lt;/span&gt;&lt;span style=&quot;background-color: initial;&quot;&gt;getGenreToFilms():&amp;nbsp;&lt;/span&gt;&lt;span style=&quot;background-color: initial;&quot;&gt;HashMap&amp;lt;String, ArrayList&amp;lt;String&amp;gt;&amp;gt;&lt;/span&gt;&lt;/p&gt;&lt;p style=&quot;margin:0px;margin-left:4px;&quot;&gt;&lt;span style=&quot;background-color: initial;&quot;&gt;+&amp;nbsp;&lt;/span&gt;&lt;span style=&quot;background-color: initial;&quot;&gt;setGenreToFilms(&lt;/span&gt;&lt;span style=&quot;text-wrap-mode: nowrap;&quot;&gt;genreToFilms:&amp;nbsp;&lt;/span&gt;&lt;span style=&quot;text-wrap-mode: nowrap; background-color: initial;&quot;&gt;HashMap&amp;lt;String, ArrayList&amp;lt;String&amp;gt;&amp;gt;&lt;/span&gt;&lt;span style=&quot;background-color: initial;&quot;&gt;)&lt;/span&gt;&lt;/p&gt;&lt;p style=&quot;margin:0px;margin-left:4px;&quot;&gt;&lt;span style=&quot;background-color: initial;&quot;&gt;+&lt;/span&gt;&lt;span style=&quot;background-color: initial;&quot;&gt;showRecommendations(String genre)&lt;/span&gt;&lt;/p&gt;" style="verticalAlign=top;align=left;overflow=fill;html=1;whiteSpace=wrap;" parent="WIyWlLk6GJQsqaUBKTNV-1" vertex="1">
          <mxGeometry x="105" y="1010" width="390" height="140" as="geometry" />
        </mxCell>
        <mxCell id="fiL2AEOfi939g-dcIRjF-3" value="&lt;p style=&quot;margin:0px;margin-top:4px;text-align:center;&quot;&gt;&lt;span style=&quot;text-wrap-mode: nowrap;&quot;&gt;&lt;b&gt;CastToDevice&lt;/b&gt;&lt;/span&gt;&lt;/p&gt;&lt;hr size=&quot;1&quot; style=&quot;border-style:solid;&quot;&gt;&lt;p style=&quot;margin:0px;margin-left:4px;&quot;&gt;&lt;span style=&quot;text-wrap-mode: nowrap;&quot;&gt;-deviceName : String&lt;/span&gt;&lt;/p&gt;&lt;p style=&quot;margin:0px;margin-left:4px;&quot;&gt;&lt;span style=&quot;text-wrap-mode: nowrap;&quot;&gt;-isCasting: Boolean&lt;/span&gt;&lt;/p&gt;&lt;hr size=&quot;1&quot; style=&quot;border-style:solid;&quot;&gt;&lt;p style=&quot;margin:0px;margin-left:4px;&quot;&gt;+&amp;lt;create&amp;gt;&lt;span style=&quot;text-align: center; text-wrap-mode: nowrap;&quot;&gt;CastToDevice&lt;/span&gt;(&lt;span style=&quot;text-wrap-mode: nowrap;&quot;&gt;deviceName : String&lt;/span&gt;&lt;span style=&quot;background-color: initial;&quot;&gt;)&lt;/span&gt;&lt;/p&gt;&lt;p style=&quot;margin:0px;margin-left:4px;&quot;&gt;&lt;span style=&quot;background-color: initial;&quot;&gt;+&lt;/span&gt;&lt;span style=&quot;background-color: initial;&quot;&gt;startCasting()&lt;/span&gt;&lt;/p&gt;&lt;p style=&quot;margin:0px;margin-left:4px;&quot;&gt;&lt;span style=&quot;background-color: initial;&quot;&gt;+&amp;nbsp;&lt;/span&gt;&lt;span style=&quot;background-color: initial;&quot;&gt;stopCasting()&lt;/span&gt;&lt;/p&gt;&lt;p style=&quot;margin:0px;margin-left:4px;&quot;&gt;&lt;span style=&quot;background-color: initial;&quot;&gt;+&lt;/span&gt;&lt;span style=&quot;background-color: initial;&quot;&gt;checkCastingStatus()&lt;/span&gt;&lt;/p&gt;" style="verticalAlign=top;align=left;overflow=fill;html=1;whiteSpace=wrap;" parent="WIyWlLk6GJQsqaUBKTNV-1" vertex="1">
          <mxGeometry x="537" y="790" width="290" height="130" as="geometry" />
        </mxCell>
        <mxCell id="fiL2AEOfi939g-dcIRjF-7" style="edgeStyle=orthogonalEdgeStyle;rounded=0;orthogonalLoop=1;jettySize=auto;html=1;exitX=0.5;exitY=0;exitDx=0;exitDy=0;entryX=0.527;entryY=1.053;entryDx=0;entryDy=0;entryPerimeter=0;endArrow=none;endFill=0;" parent="WIyWlLk6GJQsqaUBKTNV-1" source="fiL2AEOfi939g-dcIRjF-3" target="heFmf04xh7JhcdJFY1r--24" edge="1">
          <mxGeometry relative="1" as="geometry">
            <Array as="points">
              <mxPoint x="682" y="740" />
              <mxPoint x="824" y="740" />
            </Array>
          </mxGeometry>
        </mxCell>
        <mxCell id="9oOlcusf1BaMI_1G3reV-10" value="&lt;div style=&quot;font-weight: normal; font-size: 14px; line-height: 19px; white-space: pre;&quot;&gt;&lt;font face=&quot;Helvetica&quot;&gt;StreamingOption&lt;/font&gt;&lt;/div&gt;" style="swimlane;fontStyle=1;align=center;verticalAlign=top;childLayout=stackLayout;horizontal=1;startSize=26;horizontalStack=0;resizeParent=1;resizeParentMax=0;resizeLast=0;collapsible=1;marginBottom=0;whiteSpace=wrap;html=1;" vertex="1" parent="WIyWlLk6GJQsqaUBKTNV-1">
          <mxGeometry x="1020" width="160" height="260" as="geometry" />
        </mxCell>
        <mxCell id="9oOlcusf1BaMI_1G3reV-11" value="- streamOptID : String&lt;div&gt;- quality : String&lt;/div&gt;&lt;div&gt;- audio : String&lt;/div&gt;&lt;div&gt;- subtitle : String&lt;/div&gt;" style="text;strokeColor=none;fillColor=none;align=left;verticalAlign=top;spacingLeft=4;spacingRight=4;overflow=hidden;rotatable=0;points=[[0,0.5],[1,0.5]];portConstraint=eastwest;whiteSpace=wrap;html=1;" vertex="1" parent="9oOlcusf1BaMI_1G3reV-10">
          <mxGeometry y="26" width="160" height="84" as="geometry" />
        </mxCell>
        <mxCell id="9oOlcusf1BaMI_1G3reV-12" value="" style="line;strokeWidth=1;fillColor=none;align=left;verticalAlign=middle;spacingTop=-1;spacingLeft=3;spacingRight=3;rotatable=0;labelPosition=right;points=[];portConstraint=eastwest;strokeColor=inherit;" vertex="1" parent="9oOlcusf1BaMI_1G3reV-10">
          <mxGeometry y="110" width="160" height="10" as="geometry" />
        </mxCell>
        <mxCell id="9oOlcusf1BaMI_1G3reV-13" value="&lt;div&gt;&lt;span style=&quot;background-color: initial;&quot;&gt;+ chooseQuality() : void&lt;/span&gt;&lt;/div&gt;&lt;div&gt;+ chooseAudio() : void&lt;/div&gt;&lt;div&gt;+ chooseSubtitle() : void&lt;/div&gt;&lt;div&gt;+ getQuality() : String&lt;/div&gt;&lt;div&gt;+ getAudio() : String&lt;/div&gt;&lt;div&gt;+ getSubtitle() : String&lt;/div&gt;" style="text;strokeColor=none;fillColor=none;align=left;verticalAlign=top;spacingLeft=4;spacingRight=4;overflow=hidden;rotatable=0;points=[[0,0.5],[1,0.5]];portConstraint=eastwest;whiteSpace=wrap;html=1;" vertex="1" parent="9oOlcusf1BaMI_1G3reV-10">
          <mxGeometry y="120" width="160" height="140" as="geometry" />
        </mxCell>
        <mxCell id="9oOlcusf1BaMI_1G3reV-15" value="Quality" style="swimlane;fontStyle=1;align=center;verticalAlign=top;childLayout=stackLayout;horizontal=1;startSize=26;horizontalStack=0;resizeParent=1;resizeParentMax=0;resizeLast=0;collapsible=1;marginBottom=0;whiteSpace=wrap;html=1;" vertex="1" parent="WIyWlLk6GJQsqaUBKTNV-1">
          <mxGeometry x="810" y="360" width="180" height="140" as="geometry" />
        </mxCell>
        <mxCell id="9oOlcusf1BaMI_1G3reV-16" value="&lt;span style=&quot;text-wrap-mode: nowrap;&quot;&gt;-resolution :&amp;nbsp;&lt;/span&gt;&lt;span style=&quot;text-wrap-mode: nowrap; background-color: initial;&quot;&gt;List&amp;lt;String&amp;gt;&lt;/span&gt;" style="text;strokeColor=none;fillColor=none;align=left;verticalAlign=top;spacingLeft=4;spacingRight=4;overflow=hidden;rotatable=0;points=[[0,0.5],[1,0.5]];portConstraint=eastwest;whiteSpace=wrap;html=1;" vertex="1" parent="9oOlcusf1BaMI_1G3reV-15">
          <mxGeometry y="26" width="180" height="34" as="geometry" />
        </mxCell>
        <mxCell id="9oOlcusf1BaMI_1G3reV-17" value="" style="line;strokeWidth=1;fillColor=none;align=left;verticalAlign=middle;spacingTop=-1;spacingLeft=3;spacingRight=3;rotatable=0;labelPosition=right;points=[];portConstraint=eastwest;strokeColor=inherit;" vertex="1" parent="9oOlcusf1BaMI_1G3reV-15">
          <mxGeometry y="60" width="180" height="20" as="geometry" />
        </mxCell>
        <mxCell id="9oOlcusf1BaMI_1G3reV-18" value="&lt;div&gt;+ getResolution():&amp;nbsp;&lt;span style=&quot;text-wrap-mode: nowrap; background-color: initial;&quot;&gt;List&amp;lt;String&amp;gt;&lt;/span&gt;&lt;span style=&quot;background-color: initial;&quot;&gt;&amp;nbsp;&lt;/span&gt;&lt;/div&gt;&lt;div&gt;+ applyResolution() : String&lt;/div&gt;" style="text;strokeColor=none;fillColor=none;align=left;verticalAlign=top;spacingLeft=4;spacingRight=4;overflow=hidden;rotatable=0;points=[[0,0.5],[1,0.5]];portConstraint=eastwest;whiteSpace=wrap;html=1;" vertex="1" parent="9oOlcusf1BaMI_1G3reV-15">
          <mxGeometry y="80" width="180" height="60" as="geometry" />
        </mxCell>
        <mxCell id="9oOlcusf1BaMI_1G3reV-32" value="" style="endArrow=classic;html=1;rounded=0;exitX=0.5;exitY=0;exitDx=0;exitDy=0;entryX=0.494;entryY=1.021;entryDx=0;entryDy=0;entryPerimeter=0;" edge="1" parent="WIyWlLk6GJQsqaUBKTNV-1" source="9oOlcusf1BaMI_1G3reV-44">
          <mxGeometry width="50" height="50" relative="1" as="geometry">
            <mxPoint x="1300" y="360" as="sourcePoint" />
            <mxPoint x="1100" y="260" as="targetPoint" />
            <Array as="points">
              <mxPoint x="1315" y="320" />
              <mxPoint x="1100" y="320" />
            </Array>
          </mxGeometry>
        </mxCell>
        <mxCell id="9oOlcusf1BaMI_1G3reV-33" value="" style="endArrow=classic;html=1;rounded=0;exitX=0.5;exitY=0;exitDx=0;exitDy=0;" edge="1" parent="WIyWlLk6GJQsqaUBKTNV-1">
          <mxGeometry width="50" height="50" relative="1" as="geometry">
            <mxPoint x="900" y="360" as="sourcePoint" />
            <mxPoint x="1100" y="260" as="targetPoint" />
            <Array as="points">
              <mxPoint x="901" y="320" />
              <mxPoint x="1100" y="320" />
            </Array>
          </mxGeometry>
        </mxCell>
        <mxCell id="9oOlcusf1BaMI_1G3reV-34" value="" style="endArrow=classic;html=1;rounded=0;exitX=0.5;exitY=0;exitDx=0;exitDy=0;" edge="1" parent="WIyWlLk6GJQsqaUBKTNV-1">
          <mxGeometry width="50" height="50" relative="1" as="geometry">
            <mxPoint x="1100" y="360" as="sourcePoint" />
            <mxPoint x="1100" y="260" as="targetPoint" />
          </mxGeometry>
        </mxCell>
        <mxCell id="9oOlcusf1BaMI_1G3reV-40" value="Audio" style="swimlane;fontStyle=1;align=center;verticalAlign=top;childLayout=stackLayout;horizontal=1;startSize=26;horizontalStack=0;resizeParent=1;resizeParentMax=0;resizeLast=0;collapsible=1;marginBottom=0;whiteSpace=wrap;html=1;" vertex="1" parent="WIyWlLk6GJQsqaUBKTNV-1">
          <mxGeometry x="1005" y="360" width="190" height="140" as="geometry" />
        </mxCell>
        <mxCell id="9oOlcusf1BaMI_1G3reV-41" value="&lt;span style=&quot;text-wrap-mode: nowrap;&quot;&gt;-audioFormat :&amp;nbsp;&lt;/span&gt;&lt;span style=&quot;text-wrap-mode: nowrap; background-color: initial;&quot;&gt;List&amp;lt;String&amp;gt;&lt;/span&gt;" style="text;strokeColor=none;fillColor=none;align=left;verticalAlign=top;spacingLeft=4;spacingRight=4;overflow=hidden;rotatable=0;points=[[0,0.5],[1,0.5]];portConstraint=eastwest;whiteSpace=wrap;html=1;" vertex="1" parent="9oOlcusf1BaMI_1G3reV-40">
          <mxGeometry y="26" width="190" height="34" as="geometry" />
        </mxCell>
        <mxCell id="9oOlcusf1BaMI_1G3reV-42" value="" style="line;strokeWidth=1;fillColor=none;align=left;verticalAlign=middle;spacingTop=-1;spacingLeft=3;spacingRight=3;rotatable=0;labelPosition=right;points=[];portConstraint=eastwest;strokeColor=inherit;" vertex="1" parent="9oOlcusf1BaMI_1G3reV-40">
          <mxGeometry y="60" width="190" height="20" as="geometry" />
        </mxCell>
        <mxCell id="9oOlcusf1BaMI_1G3reV-43" value="&lt;div&gt;+ getAudioFormat():&amp;nbsp;&lt;span style=&quot;text-wrap-mode: nowrap; background-color: initial;&quot;&gt;List&amp;lt;String&amp;gt;&lt;/span&gt;&lt;span style=&quot;background-color: initial;&quot;&gt;&amp;nbsp;&lt;/span&gt;&lt;/div&gt;&lt;div&gt;+ applyAudioFormat() : String&lt;/div&gt;" style="text;strokeColor=none;fillColor=none;align=left;verticalAlign=top;spacingLeft=4;spacingRight=4;overflow=hidden;rotatable=0;points=[[0,0.5],[1,0.5]];portConstraint=eastwest;whiteSpace=wrap;html=1;" vertex="1" parent="9oOlcusf1BaMI_1G3reV-40">
          <mxGeometry y="80" width="190" height="60" as="geometry" />
        </mxCell>
        <mxCell id="9oOlcusf1BaMI_1G3reV-44" value="Subtitle" style="swimlane;fontStyle=1;align=center;verticalAlign=top;childLayout=stackLayout;horizontal=1;startSize=26;horizontalStack=0;resizeParent=1;resizeParentMax=0;resizeLast=0;collapsible=1;marginBottom=0;whiteSpace=wrap;html=1;" vertex="1" parent="WIyWlLk6GJQsqaUBKTNV-1">
          <mxGeometry x="1210" y="360" width="210" height="140" as="geometry" />
        </mxCell>
        <mxCell id="9oOlcusf1BaMI_1G3reV-45" value="&lt;span style=&quot;text-wrap-mode: nowrap;&quot;&gt;-subtitleLanguage :&amp;nbsp;&lt;/span&gt;&lt;span style=&quot;text-wrap-mode: nowrap; background-color: initial;&quot;&gt;List&amp;lt;String&amp;gt;&lt;/span&gt;" style="text;strokeColor=none;fillColor=none;align=left;verticalAlign=top;spacingLeft=4;spacingRight=4;overflow=hidden;rotatable=0;points=[[0,0.5],[1,0.5]];portConstraint=eastwest;whiteSpace=wrap;html=1;" vertex="1" parent="9oOlcusf1BaMI_1G3reV-44">
          <mxGeometry y="26" width="210" height="34" as="geometry" />
        </mxCell>
        <mxCell id="9oOlcusf1BaMI_1G3reV-46" value="" style="line;strokeWidth=1;fillColor=none;align=left;verticalAlign=middle;spacingTop=-1;spacingLeft=3;spacingRight=3;rotatable=0;labelPosition=right;points=[];portConstraint=eastwest;strokeColor=inherit;" vertex="1" parent="9oOlcusf1BaMI_1G3reV-44">
          <mxGeometry y="60" width="210" height="20" as="geometry" />
        </mxCell>
        <mxCell id="9oOlcusf1BaMI_1G3reV-47" value="&lt;div&gt;+get&lt;span style=&quot;text-wrap-mode: nowrap;&quot;&gt;subtitleLanguage&lt;/span&gt;():&amp;nbsp;&lt;span style=&quot;text-wrap-mode: nowrap; background-color: initial;&quot;&gt;List&amp;lt;String&amp;gt;&lt;/span&gt;&lt;span style=&quot;background-color: initial;&quot;&gt;&amp;nbsp;&lt;/span&gt;&lt;/div&gt;&lt;div&gt;+ apply&lt;span style=&quot;text-wrap-mode: nowrap;&quot;&gt;subtitleLanguage&lt;/span&gt;() : String&lt;/div&gt;" style="text;strokeColor=none;fillColor=none;align=left;verticalAlign=top;spacingLeft=4;spacingRight=4;overflow=hidden;rotatable=0;points=[[0,0.5],[1,0.5]];portConstraint=eastwest;whiteSpace=wrap;html=1;" vertex="1" parent="9oOlcusf1BaMI_1G3reV-44">
          <mxGeometry y="80" width="210" height="60" as="geometry" />
        </mxCell>
        <mxCell id="9oOlcusf1BaMI_1G3reV-48" value="" style="endArrow=none;html=1;rounded=0;entryX=0.554;entryY=1.001;entryDx=0;entryDy=0;entryPerimeter=0;exitX=0.5;exitY=0;exitDx=0;exitDy=0;" edge="1" parent="WIyWlLk6GJQsqaUBKTNV-1" source="heFmf04xh7JhcdJFY1r--23" target="9oOlcusf1BaMI_1G3reV-18">
          <mxGeometry width="50" height="50" relative="1" as="geometry">
            <mxPoint x="839.9952870788285" y="664.54" as="sourcePoint" />
            <mxPoint x="907.6799999999998" y="500.00000000000006" as="targetPoint" />
            <Array as="points">
              <mxPoint x="820" y="560" />
              <mxPoint x="910" y="560" />
            </Array>
          </mxGeometry>
        </mxCell>
        <mxCell id="9oOlcusf1BaMI_1G3reV-49" value="" style="endArrow=none;html=1;rounded=0;exitX=0.5;exitY=0;exitDx=0;exitDy=0;entryX=0.552;entryY=1.005;entryDx=0;entryDy=0;entryPerimeter=0;" edge="1" parent="WIyWlLk6GJQsqaUBKTNV-1" source="heFmf04xh7JhcdJFY1r--23" target="9oOlcusf1BaMI_1G3reV-43">
          <mxGeometry width="50" height="50" relative="1" as="geometry">
            <mxPoint x="830" y="590" as="sourcePoint" />
            <mxPoint x="960" y="470" as="targetPoint" />
            <Array as="points">
              <mxPoint x="820" y="560" />
              <mxPoint x="1110" y="560" />
            </Array>
          </mxGeometry>
        </mxCell>
        <mxCell id="9oOlcusf1BaMI_1G3reV-50" value="" style="endArrow=none;html=1;rounded=0;exitX=0.5;exitY=0;exitDx=0;exitDy=0;entryX=0.479;entryY=1.002;entryDx=0;entryDy=0;entryPerimeter=0;" edge="1" parent="WIyWlLk6GJQsqaUBKTNV-1" source="heFmf04xh7JhcdJFY1r--23" target="9oOlcusf1BaMI_1G3reV-47">
          <mxGeometry width="50" height="50" relative="1" as="geometry">
            <mxPoint x="1080" y="670" as="sourcePoint" />
            <mxPoint x="1300" y="510" as="targetPoint" />
            <Array as="points">
              <mxPoint x="820" y="560" />
              <mxPoint x="1310" y="560" />
            </Array>
          </mxGeometry>
        </mxCell>
      </root>
    </mxGraphModel>
  </diagram>
</mxfile>
